/* XPM */
static char *networkboth_xpm[] = {
"24 24 8 1",
"0	c #000000",
"1	c #00FFFF",
"2	c #00FF00",
"3	c #B2B240",
"4	c #3333B6",
"5	c #909090",
" 	c None",
"7	c #00C800",
"                   11111",
"       00000       55555",
"     002277200     11111",
"    02222222220    55555",
"   0772222222270   11111",
"  077722222227770    5  ",
"  077222222227770    5  ",
" 07722222222227770   5  ",
" 07227227722222770 333  ",
" 02222222222222270    3 ",
" 022227227220000000000  ",
" 0222277777022222222270 ",
"  022777777022222222270 ",
"  022777777022222222270 ",
"   02277272022222222270 ",
"    0222222022222222270 ",
"   15002777022222222270 ",
"  151  0000022222222270 ",
" 151       077777777770 ",
" 151       10000000000  ",
"  151     151  0000     ",
"   151111151  000000    ",
"    1555551   000000    ",
"     11111              "
};
