/* XPM */
static char *networkblank-dialup_xpm[] = {
"24 24 8 1",
"0	c #000000",
"1	c #00FFFF",
"2	c #00FF00",
"3	c #B2B240",
"4	c #3333B6",
"5	c #909090",
" 	c None",
"7	c #FFFFFF",
"                        ",
"       00000       55555",
"     004433400       5  ",
"    04444444440    55555",
"   0334444444430     5  ",
"  033344444443330    5  ",
"  033444444443330    5  ",
" 03344444444443330   5  ",
" 03443443344444330 333  ",
" 04444444444444430    3 ",
" 044443443440000000000  ",
" 0444433333055555555550 ",
"  044333333055555555550 ",
"  044333333055555555550 ",
"   04433434055555555550 ",
"    0444444055555555550 ",
"    5004333055555555550 ",
"   55  0000055555555550 ",
"  55       055555555550 ",
"  55       50000000000  ",
"   55     55   0000     ",
"    5555555   000000    ",
"     55555    000000    ",
"                        "
};
