/* XPM */
static char *networkblank-dialup_xpm[] = {
"24 24 8 1",
"0	c #000000",
"1	c #00FFFF",
"2	c #00FF00",
"3	c #B2B240",
"4	c #3333B6",
"5	c #909090",
" 	c None",
"7	c #FFFFFF",
"                        ",
"       00000            ",
"     004433400          ",
"    04444444440         ",
"   0334444444430        ",
"  033344444443330       ",
"  033444444443330       ",
" 03344444444443330      ",
" 03443443344444330      ",
" 04444444444444430      ",
" 044443443440000000000  ",
" 0444433333055555555550 ",
"  044333333055555555550 ",
"  044333333055555555550 ",
"   04433434055555555550 ",
"    0444444055555555550 ",
"     004333055555555550 ",
"    5  0000055555555550 ",
"   5       055555555550 ",
" 111111    00000000000  ",
"11 11 11  5    0000     ",
"  1551   5    000000    ",
" 11111155     000000    ",
"                        "
};
