/* XPM */
static char *networkboth_xpm[] = {
"24 24 8 1",
"0	c #000000",
"1	c #00FFFF",
"2	c #00FF00",
"3	c #B2B240",
"4	c #3333B6",
"5	c #909090",
" 	c None",
"7	c #00C800",
"                        ",
"       00000            ",
"     002277200          ",
"    02222222220         ",
"   0772222222270        ",
"  077722222227770       ",
"  077222222227770       ",
" 07722222222227770      ",
" 07227227722222770      ",
" 02222222222222270      ",
" 022227227220000000000  ",
" 0222277777022222222270 ",
"  022777777022222222270 ",
"  022777777022222222270 ",
"   02277272022222222270 ",
"    0222222022222222270 ",
"     002777022222222270 ",
"    5  0000022222222270 ",
"   5       077777777770 ",
" 111111    00000000000  ",
"11 11 11  5    0000     ",
"  1551   5    000000    ",
" 11111155     000000    ",
"                        "
};
