/* XPM */
static char *networkblank-wireless_xpm[] = {
"24 24 8 1",
"0	c #000000",
"1	c #00FFFF",
"2	c #00FF00",
"3	c #B2B240",
"4	c #3333B6",
"5	c #909090",
" 	c None",
"7	c #FFFFFF",
"                        ",
"       00000            ",
"     004433400 1     1  ",
"    044444444401 1 1 1  ",
"   033444444441011 11 1 ",
"  033344444443131 1 1 1 ",
"  0334444444431311511 1 ",
" 0334444444444313151 1  ",
" 034434433444441305  1  ",
" 044444444444444305     ",
" 044443443440000000000  ",
" 0444433333055555555550 ",
"  044333333055555555550 ",
"  044333333055555555550 ",
"   04433434055555555550 ",
"    0444444055555555550 ",
"   15004333055555555550 ",
"  151  0000055555555550 ",
" 151       055555555550 ",
" 151       10000000000  ",
"  151     151  0000     ",
"   151111151  000000    ",
"    1555551   000000    ",
"     11111              "
};
