/* XPM */
static char *networkdead_xpm[] = {
"24 24 8 1",
"0	c #000000",
"1	c #FF0000",
"2	c #00FF00",
"3	c #B2B240",
"4	c #3333B6",
"5	c #A0A0A0",
" 	c None",
"7	c #FFFFFF",
"                        ",
"       00000            ",
"     004433400          ",
"    04444444440         ",
"   0334444444430        ",
"  0333774444433377      ",
"  03371174444337117     ",
" 033471117444471117     ",
" 03443711174471117      ",
" 04444471117711170      ",
" 044443471111117000000  ",
" 0444433371111755555550 ",
"  044333371111755555550 ",
"  044333711111175555550 ",
"   04437111771117555550 ",
"    0471117057111755550 ",
"     711173055711175550 ",
"     711700055571175550 ",
"      77   055557755550 ",
"            0000000000  ",
"               0000     ",
"              000000    ",
"              000000    ",
"                        "
};
