/* XPM */
static char *networkout_xpm[] = {
"24 24 8 1",
"0	c #000000",
"1	c #00FFFF",
"2	c #00FF00",
"3	c #B2B240",
"4	c #3333B6",
"5	c #909090",
" 	c None",
"7	c #00C800",
"                   11111",
"       00000       55555",
"     004433400 1   11111",
"    044444444401 1 15155",
"   033444444441011 11111",
"  033344444443131 1 151 ",
"  033444444443131151151 ",
" 0334444444444313151 1  ",
" 034434433444441305331  ",
" 044444444444444305   3 ",
" 044443443440000000000  ",
" 0444433333022222222270 ",
"  044333333022222222270 ",
"  044333333022222222270 ",
"   04433434022222222270 ",
"    0444444022222222270 ",
"   15004333022222222270 ",
"  151  0000022222222270 ",
" 151       077777777770 ",
" 151       10000000000  ",
"  151     151  0000     ",
"   151111151  000000    ",
"    1555551   000000    ",
"     11111              "
};
