/* XPM */
static char *networkboth_xpm[] = {
"24 24 8 1",
"0	c #000000",
"1	c #00FFFF",
"2	c #00FF00",
"3	c #B2B240",
"4	c #3333B6",
"5	c #909090",
" 	c None",
"7	c #00C800",
"                   11111",
"       00000       55555",
"     002277200 1   11111",
"    022222222201 1 15155",
"   077222222221011 11111",
"  077722222227171 1 151 ",
"  077222222227171151151 ",
" 0772222222222717151 1  ",
" 072272277222221705331  ",
" 022222222222222705   3 ",
" 022227227220000000000  ",
" 0222277777022222222270 ",
"  022777777022222222270 ",
"  022777777022222222270 ",
"   02277272022222222270 ",
"    0222222022222222270 ",
"     002777022222222270 ",
"       0000022222222270 ",
"           077777777770 ",
"            0000000000  ",
"               0000     ",
"              000000    ",
"              000000    ",
"                        "
};
