/* XPM */
static char *networkblank-wireless_xpm[] = {
"24 24 8 1",
"0	c #000000",
"1	c #00FFFF",
"2	c #00FF00",
"3	c #B2B240",
"4	c #3333B6",
"5	c #909090",
" 	c None",
"7	c #FFFFFF",
"                   11111",
"       00000       55555",
"     004433400 1   11111",
"    044444444401 1 15155",
"   033444444441011 11111",
"  033344444443131 1 151 ",
"  033444444443131151151 ",
" 0334444444444313151 1  ",
" 034434433444441305331  ",
" 044444444444444305   3 ",
" 044443443440000000000  ",
" 0444433333055555555550 ",
"  044333333055555555550 ",
"  044333333055555555550 ",
"   04433434055555555550 ",
"    0444444055555555550 ",
"     004333055555555550 ",
"       0000055555555550 ",
"           055555555550 ",
"            0000000000  ",
"               0000     ",
"              000000    ",
"              000000    ",
"                        "
};
