/* XPM */
static char *networkboth-wireless_xpm[] = {
"24 24 8 1",
"0	c #000000",
"1	c #00FFFF",
"2	c #00FF00",
"3	c #B2B240",
"4	c #3333B6",
"5	c #909090",
" 	c None",
"7	c #00C800",
"                        ",
"       00000            ",
"     002277200 1     1  ",
"    022222222201 1 1 1  ",
"   077222222221011 11 1 ",
"  077722222227171 1 1 1 ",
"  0772222222271711511 1 ",
" 0772222222222717151 1  ",
" 072272277222221705  1  ",
" 022222222222222705     ",
" 022227227220000000000  ",
" 0222277777022222222270 ",
"  022777777022222222270 ",
"  022777777022222222270 ",
"   02277272022222222270 ",
"    0222222022222222270 ",
"   15002777022222222270 ",
"  151  0000022222222270 ",
" 151       077777777770 ",
" 151       10000000000  ",
"  151     151  0000     ",
"   151111151  000000    ",
"    1555551   000000    ",
"     11111              "
};
