/* XPM */
static char *networkblank-wireless_xpm[] = {
"24 24 8 1",
"0	c #000000",
"1	c #00FFFF",
"2	c #00FF00",
"3	c #B2B240",
"4	c #3333B6",
"5	c #909090",
" 	c None",
"7	c #FFFFFF",
"                        ",
"       00000            ",
"     004433400          ",
"    04444444440         ",
"   0334444444430  5     ",
"  033344444443330 5     ",
"  033444444443330 5     ",
" 033444444444433305     ",
" 034434433444443305     ",
" 044444444444444305     ",
" 044443443440000000000  ",
" 0444433333055555555550 ",
"  044333333055555555550 ",
"  044333333055555555550 ",
"   04433434055555555550 ",
"    0444444055555555550 ",
"     004333055555555550 ",
"       0000055555555550 ",
"           055555555550 ",
"            0000000000  ",
"               0000     ",
"              000000    ",
"              000000    ",
"                        "
};
